# xmcd CD database file
#
# Track frame offsets:
#	150
#	16962
#	51762
#	74950
#	101562
#	118712
#	140187
#	177412
#	208700
#	227200
#	261187
#	295012
#
# Disc length: 4244 seconds
#
# Revision: 0
# Processed by: cddbd v1.5.1PL2 Copyright (c) Steve Scherf et al.
# Submitted via: CDex 1.51
#
DISCID=bf10920c
DTITLE=Various Artist - Music-Collection 2
DYEAR=1998
DGENRE=New Age
TTITLE0=Hans-Andre Stamm - Oidche mhath leibh
TTITLE1=Shantiprem and Rüdiger Dahlke - Wasser-Weg
TTITLE2=Wachan - Tahuantinsuyo
TTITLE3=Els Ilg and Annamarie Moergli and Pius Brogle - Water Reflections
TTITLE4=Shantiprem - Klangfeld Luft
TTITLE5=Bettine Clemen and Kim Robertson - Lerne zu vergeben
TTITLE6=Bruce Werber and Claudia Fried - Halleluja
TTITLE7=Rupesh - Rumgua
TTITLE8=Bruce Werber and Claudia Fried - Wassermann
TTITLE9=Bruce Werber and Claudia Fried - Lichtreise
TTITLE10=Christian Bollmann - Prayer
TTITLE11=C. Deuter - Entspann dich
EXTD=YEAR: 1998
EXTT0=
EXTT1=
EXTT2=
EXTT3=
EXTT4=
EXTT5=
EXTT6=
EXTT7=
EXTT8=
EXTT9=
EXTT10=
EXTT11=
PLAYORDER=
